<svg xmlns="http://www.w3.org/2000/svg" viewBox="0 0 20 20" fill="none"><path d="M17.4997 9.58333C17.4997 13.4953 14.3283 16.6667 10.4163 16.6667C9.519 16.6667 8.66067 16.4998 7.87065 16.1954C7.72621 16.1398 7.65398 16.112 7.59655 16.0988C7.54006 16.0858 7.49917 16.0803 7.44124 16.0781C7.38234 16.0758 7.31772 16.0825 7.18849 16.0958L2.92097 16.537C2.5141 16.579 2.31067 16.6001 2.19067 16.5268C2.08614 16.4631 2.01495 16.3566 1.996 16.2357C1.97424 16.0968 2.07146 15.9168 2.26588 15.557L3.62893 13.034C3.74118 12.8263 3.79731 12.7223 3.82273 12.6224C3.84783 12.5238 3.85391 12.4527 3.84587 12.3512C3.83774 12.2484 3.79266 12.1147 3.7025 11.8472C3.46289 11.1363 3.33302 10.375 3.33302 9.58333C3.33302 5.67132 6.50433 2.5 10.4163 2.5C14.3283 2.5 17.4997 5.67132 17.4997 9.58333Z" stroke="currentColor" stroke-width="1.5" stroke-linecap="round" stroke-linejoin="round"/></svg>
